<?xml version="1.0" encoding="utf-8"?>
<!-- Generator: Adobe Illustrator 23.0.6, SVG Export Plug-In . SVG Version: 6.00 Build 0)  -->
<svg version="1.1" id="Capa_1" xmlns="http://www.w3.org/2000/svg" xmlns:xlink="http://www.w3.org/1999/xlink" x="0px" y="0px"
	 viewBox="0 643.085 1920 436.915" enable-background="new 0 643.085 1920 436.915" xml:space="preserve">
<g id="Clip-31_1_">
</g>
<g>
	<defs>
		<rect id="SVGID_1_" y="643.085" width="721.256" height="436.915"/>
	</defs>
	<clipPath id="SVGID_2_">
		<use xlink:href="#SVGID_1_"  overflow="visible"/>
	</clipPath>
	<path clip-path="url(#SVGID_2_)" fill="#26CAD3" d="M721.256,1080.157c-20.584-8.776-35.418-28.4-37.362-51.688
		c-0.125-35.421-28.872-64.099-64.322-64.099h-0.002c-25.669,0-47.822,15.04-58.141,36.785
		c-11.402,18.003-31.491,29.959-54.378,29.959h-0.001c-35.525,0-64.326-28.801-64.329-64.324l-0.076,0.039
		c8.383-81.214-18.551-165.42-80.825-227.694C261.787,639.101,105.166,630.228-4.738,712.537v371.545h725.994V1080.157z"/>
	<path clip-path="url(#SVGID_2_)" fill="#26CAD3" d="M-4.738,918.224V707.234c58.263,0,105.495,47.231,105.495,105.493
		C100.757,870.993,53.524,918.224-4.738,918.224z"/>
	<path clip-path="url(#SVGID_2_)" fill="#00758D" d="M-4.738,871.173h141.122c98.746,0,178.796,80.142,178.796,179.001
		c0,10.891-0.975,21.554-2.835,31.908H-4.738V871.173z"/>
	<g clip-path="url(#SVGID_2_)">
		<path fill="#26CAD3" d="M221.206,1030.631L221.206,1030.631c16.817,0,30.449-13.633,30.449-30.449v-99.99
			c0-16.815-13.632-30.448-30.449-30.448l0,0c-16.817,0-30.448,13.633-30.448,30.448v99.99
			C190.758,1016.998,204.389,1030.631,221.206,1030.631z"/>
		<path fill="#26CAD3" d="M131.205,1030.718L131.205,1030.718c16.817,0,30.45-13.632,30.45-30.447v-99.99
			c0-16.816-13.633-30.449-30.45-30.449l0,0c-16.816,0-30.448,13.633-30.448,30.449v99.99
			C100.757,1017.086,114.389,1030.718,131.205,1030.718z"/>
		<path fill="#26CAD3" d="M41.022,1030.718L41.022,1030.718c16.816,0,30.448-13.632,30.448-30.447v-99.99
			c0-16.816-13.632-30.449-30.448-30.449l0,0c-16.817,0-30.45,13.633-30.45,30.449v99.99
			C10.572,1017.086,24.206,1030.718,41.022,1030.718z"/>
	</g>
	<path clip-path="url(#SVGID_2_)" fill="#2DA6DE" d="M-4.738,918.224V707.234c58.263,0,105.495,47.231,105.495,105.493
		C100.757,870.993,53.524,918.224-4.738,918.224z"/>
	<path clip-path="url(#SVGID_2_)" fill="#2DA6DE" d="M151.994,917.559h110.084c77.028,0,139.473,62.517,139.473,139.632
		c0,8.498-0.76,16.814-2.212,24.892H151.994V917.559z"/>
	<path clip-path="url(#SVGID_2_)" fill="#00758D" d="M-4.738,871.173h141.122c98.746,0,178.796,80.142,178.796,179.001
		c0,10.891-0.975,21.554-2.835,31.908H-4.738V871.173z"/>
	<g clip-path="url(#SVGID_2_)">
		<path fill="#2DA6DE" d="M221.206,1030.631L221.206,1030.631c16.817,0,30.449-13.633,30.449-30.449v-99.99
			c0-16.815-13.632-30.448-30.449-30.448l0,0c-16.817,0-30.448,13.633-30.448,30.448v99.99
			C190.758,1016.998,204.389,1030.631,221.206,1030.631z"/>
		<path fill="#2DA6DE" d="M131.205,1030.718L131.205,1030.718c16.817,0,30.45-13.632,30.45-30.447v-99.99
			c0-16.816-13.633-30.449-30.45-30.449l0,0c-16.816,0-30.448,13.633-30.448,30.449v99.99
			C100.757,1017.086,114.389,1030.718,131.205,1030.718z"/>
		<path fill="#2DA6DE" d="M41.022,1030.718L41.022,1030.718c16.816,0,30.448-13.632,30.448-30.447v-99.99
			c0-16.816-13.632-30.449-30.448-30.449l0,0c-16.817,0-30.45,13.633-30.45,30.449v99.99
			C10.572,1017.086,24.206,1030.718,41.022,1030.718z"/>
	</g>
</g>
<g>
	<defs>
		
			<rect id="SVGID_3_" x="1198.744" y="643.085" transform="matrix(-1 -1.224647e-16 1.224647e-16 -1 3118.7441 1723.0853)" width="721.256" height="436.915"/>
	</defs>
	<clipPath id="SVGID_4_">
		<use xlink:href="#SVGID_3_"  overflow="visible"/>
	</clipPath>
	<path clip-path="url(#SVGID_4_)" fill="#26CAD3" d="M1198.744,1080.157c20.584-8.776,35.418-28.4,37.362-51.688
		c0.125-35.421,28.872-64.099,64.322-64.099h0.002c25.669,0,47.822,15.04,58.141,36.785c11.402,18.003,31.491,29.959,54.378,29.959
		h0.001c35.525,0,64.326-28.801,64.329-64.324l0.076,0.039c-8.384-81.214,18.551-165.42,80.825-227.694
		c100.034-100.034,256.654-108.907,366.559-26.598v371.545h-725.994V1080.157z"/>
	<path clip-path="url(#SVGID_4_)" fill="#26CAD3" d="M1924.738,918.224V707.234c-58.263,0-105.495,47.231-105.495,105.493
		C1819.243,870.993,1866.476,918.224,1924.738,918.224z"/>
	<path clip-path="url(#SVGID_4_)" fill="#00758D" d="M1924.738,871.173h-141.122c-98.746,0-178.796,80.142-178.796,179.001
		c0,10.891,0.975,21.554,2.835,31.908h317.083V871.173z"/>
	<g clip-path="url(#SVGID_4_)">
		<path fill="#26CAD3" d="M1698.794,1030.631L1698.794,1030.631c-16.817,0-30.449-13.633-30.449-30.449v-99.99
			c0-16.815,13.632-30.448,30.449-30.448l0,0c16.817,0,30.448,13.633,30.448,30.448v99.99
			C1729.242,1016.998,1715.611,1030.631,1698.794,1030.631z"/>
		<path fill="#26CAD3" d="M1788.795,1030.718L1788.795,1030.718c-16.817,0-30.45-13.632-30.45-30.447v-99.99
			c0-16.816,13.633-30.449,30.45-30.449l0,0c16.816,0,30.448,13.633,30.448,30.449v99.99
			C1819.243,1017.086,1805.611,1030.718,1788.795,1030.718z"/>
		<path fill="#26CAD3" d="M1878.978,1030.718L1878.978,1030.718c-16.816,0-30.448-13.632-30.448-30.447v-99.99
			c0-16.816,13.632-30.449,30.448-30.449l0,0c16.817,0,30.45,13.633,30.45,30.449v99.99
			C1909.428,1017.086,1895.794,1030.718,1878.978,1030.718z"/>
	</g>
	<path clip-path="url(#SVGID_4_)" fill="#2DA6DE" d="M1924.738,918.224V707.234c-58.263,0-105.495,47.231-105.495,105.493
		C1819.243,870.993,1866.476,918.224,1924.738,918.224z"/>
	<path clip-path="url(#SVGID_4_)" fill="#2DA6DE" d="M1768.006,917.559h-110.083c-77.028,0-139.473,62.517-139.473,139.632
		c0,8.498,0.76,16.814,2.212,24.892h247.344V917.559z"/>
	<path clip-path="url(#SVGID_4_)" fill="#00758D" d="M1924.738,871.173h-141.122c-98.746,0-178.796,80.142-178.796,179.001
		c0,10.891,0.975,21.554,2.835,31.908h317.083V871.173z"/>
	<g clip-path="url(#SVGID_4_)">
		<path fill="#2DA6DE" d="M1698.794,1030.631L1698.794,1030.631c-16.817,0-30.449-13.633-30.449-30.449v-99.99
			c0-16.815,13.632-30.448,30.449-30.448l0,0c16.817,0,30.448,13.633,30.448,30.448v99.99
			C1729.242,1016.998,1715.611,1030.631,1698.794,1030.631z"/>
		<path fill="#2DA6DE" d="M1788.795,1030.718L1788.795,1030.718c-16.817,0-30.45-13.632-30.45-30.447v-99.99
			c0-16.816,13.633-30.449,30.45-30.449l0,0c16.816,0,30.448,13.633,30.448,30.449v99.99
			C1819.243,1017.086,1805.611,1030.718,1788.795,1030.718z"/>
		<path fill="#2DA6DE" d="M1878.978,1030.718L1878.978,1030.718c-16.816,0-30.448-13.632-30.448-30.447v-99.99
			c0-16.816,13.632-30.449,30.448-30.449l0,0c16.817,0,30.45,13.633,30.45,30.449v99.99
			C1909.428,1017.086,1895.794,1030.718,1878.978,1030.718z"/>
	</g>
</g>
</svg>
