<?xml version="1.0" encoding="utf-8"?>
<!-- Generator: Adobe Illustrator 23.0.6, SVG Export Plug-In . SVG Version: 6.00 Build 0)  -->
<svg version="1.1" xmlns="http://www.w3.org/2000/svg" xmlns:xlink="http://www.w3.org/1999/xlink" x="0px" y="0px"
	 viewBox="0 0 354.331 272.009" enable-background="new 0 0 354.331 272.009" xml:space="preserve">
<g id="FONDO" display="none">
</g>
<g id="LOGO">
	<g>
		<g>
			<path fill="#FFFFFF" d="M92.957,272.009c-3.74-0.012-7.514-1.122-10.813-3.427c-8.612-6.014-10.717-17.869-4.706-26.483
				l50.314-72.063l-87.382-19.602c-8.354-1.871-14.426-9.099-14.832-17.651c-0.409-8.551,4.947-16.32,13.083-18.981l111.652-36.501
				L13.675,37.275C3.596,34.319-2.182,23.756,0.773,13.677C3.727,3.596,14.294-2.182,24.372,0.773l195.49,57.283
				c7.996,2.344,13.54,9.623,13.668,17.958c0.128,8.333-5.185,15.781-13.107,18.371l-104.239,34.079l47.549,10.665
				c6.184,1.388,11.272,5.764,13.567,11.672c2.293,5.911,1.494,12.573-2.135,17.773l-66.541,95.303
				C104.915,269.19,98.98,272.027,92.957,272.009z"/>
		</g>
		<g>
			<path fill="#FFFFFF" d="M218.015,200.688c-12.465-0.038-19.27-4.426-24.154-10.088c-0.743-0.961-0.527-1.812,0.327-2.662
				l7.483-8.501c0.961-0.849,1.706-0.634,2.557,0.221c3.505,3.42,7.441,5.456,15.112,5.479c6.392,0.019,11.837-3.694,13.244-11.254
				c1.191-6.389-2.954-9.705-9.666-9.725c-1.918-0.005-4.583,0.307-7.034,0.938c-1.174,0.316-2.024-0.218-2.235-1.285l-1.686-6.077
				c-0.21-0.96,0.005-1.705,0.753-2.341l19.227-16.883l-23.865-0.072c-1.172-0.003-1.808-0.857-1.698-2.029l2.165-11.5
				c0.11-1.065,0.751-1.703,1.923-1.699l42.935,0.128c1.171,0.004,1.808,0.858,1.698,2.03l-1.732,9.05
				c-0.11,0.959-0.324,1.491-1.072,2.128l-19.867,17.094l0,0.106c10.974-0.287,18.509,9.857,16.449,21.57
				C245.848,191.821,234.209,200.736,218.015,200.688z"/>
			<path fill="#FFFFFF" d="M273.105,197.868c-0.216,1.065-0.857,1.702-1.923,1.699l-13.211-0.039
				c-1.172-0.004-1.809-0.858-1.699-2.029l13.001-72.409c0.216-1.065,0.857-1.702,2.029-1.699l13.104,0.039
				c1.279,0.004,1.915,0.858,1.699,2.029L273.105,197.868z"/>
			<path fill="#FFFFFF" d="M352.59,123.633c1.279,0.004,1.915,0.753,1.699,2.03l-2.166,11.713c-0.109,1.065-0.75,1.702-1.923,1.699
				l-18.431-0.055l-10.616,58.991c-0.217,1.065-0.858,1.702-1.923,1.699l-13.318-0.04c-1.172-0.003-1.808-0.857-1.592-2.029
				l10.615-58.672l-18.218-0.055c-1.278-0.004-1.808-0.858-1.698-2.029l2.165-11.713c0.216-1.065,0.857-1.702,1.923-1.699
				L352.59,123.633z"/>
		</g>
	</g>
</g>
</svg>
