<svg id="Capa_1" data-name="Capa 1" xmlns="http://www.w3.org/2000/svg" xmlns:xlink="http://www.w3.org/1999/xlink" viewBox="0 0 900 600"><defs><style>.cls-1{fill:#030512;}.cls-2{fill:#00758d;}.cls-3{fill:#ef4136;}.cls-4{fill:#f05c2c;}.cls-5{fill:url(#Degradado_sin_nombre_26);}.cls-6{fill:url(#Degradado_sin_nombre_64);}.cls-7{fill:#ffc99c;}.cls-8{fill:#312b2c;}.cls-17,.cls-24,.cls-29,.cls-8{opacity:0.2;}.cls-9{fill:url(#Degradado_sin_nombre_68);}.cls-10,.cls-11,.cls-13,.cls-14{opacity:0.37;}.cls-10{fill:url(#Degradado_sin_nombre_64-2);}.cls-11{fill:url(#Degradado_sin_nombre_64-3);}.cls-12{fill:#ffcea3;}.cls-13{fill:url(#Degradado_sin_nombre_47);}.cls-14{fill:url(#Degradado_sin_nombre_47-2);}.cls-15,.cls-24{fill:#ffe5c6;}.cls-16{fill:#563d4d;}.cls-18,.cls-29{fill:#8f5936;}.cls-19{fill:url(#Degradado_sin_nombre_68-2);}.cls-20{fill:url(#Degradado_sin_nombre_26-2);}.cls-21{fill:url(#Degradado_sin_nombre_23);}.cls-22{fill:#e58a80;}.cls-23{fill:#b15e53;}.cls-25{fill:#fff;}.cls-26{fill:#00768e;}.cls-27{fill:#ea9971;}.cls-28{fill:#8a6a5c;}.cls-30,.cls-31{fill:#d5d8d8;}.cls-31{opacity:0.59;}.cls-32{fill:#00cad4;}.cls-33{fill:url(#Degradado_sin_nombre_26-3);}.cls-34{fill:#ffd41e;}.cls-35{fill:url(#Degradado_sin_nombre_26-4);}.cls-36{fill:url(#Degradado_sin_nombre_26-5);}.cls-37{fill:url(#Degradado_sin_nombre_26-6);}.cls-38{fill:url(#Degradado_sin_nombre_26-7);}</style><linearGradient id="Degradado_sin_nombre_26" x1="774.45" y1="-740.03" x2="835.71" y2="-740.03" gradientTransform="matrix(0.53, -0.85, 0.85, 0.53, 462.11, 1419.4)" gradientUnits="userSpaceOnUse"><stop offset="0" stop-color="#ffda00"/><stop offset="0.39" stop-color="#f8af1d"/><stop offset="0.78" stop-color="#f0823b"/></linearGradient><linearGradient id="Degradado_sin_nombre_64" x1="357.5" y1="371.59" x2="505.96" y2="371.59" gradientUnits="userSpaceOnUse"><stop offset="0" stop-color="#ffc99c"/><stop offset="0.15" stop-color="#fcc091"/><stop offset="0.43" stop-color="#f3a875"/><stop offset="0.78" stop-color="#e58146"/><stop offset="0.78" stop-color="#e58146"/></linearGradient><linearGradient id="Degradado_sin_nombre_68" x1="599.65" y1="6.56" x2="472.93" y2="-120.15" gradientTransform="translate(-12.93 261.44) rotate(-9.35)" gradientUnits="userSpaceOnUse"><stop offset="0" stop-color="#ffae32"/><stop offset="1" stop-color="#ab431b"/></linearGradient><linearGradient id="Degradado_sin_nombre_64-2" x1="2841.58" y1="-165.23" x2="2944.2" y2="-165.23" gradientTransform="matrix(-0.92, 0.4, 0.4, 0.92, 3093.8, -713.92)" xlink:href="#Degradado_sin_nombre_64"/><linearGradient id="Degradado_sin_nombre_64-3" x1="444.09" y1="274.19" x2="548.48" y2="274.19" xlink:href="#Degradado_sin_nombre_64"/><linearGradient id="Degradado_sin_nombre_47" x1="3856.86" y1="-142.62" x2="3884.25" y2="-142.62" gradientTransform="matrix(-1.11, 0.28, 0.24, 0.97, 4762.13, -621.2)" gradientUnits="userSpaceOnUse"><stop offset="0" stop-color="#ffa470"/><stop offset="0.78" stop-color="#e58146"/></linearGradient><linearGradient id="Degradado_sin_nombre_47-2" x1="410.95" y1="309.63" x2="438.69" y2="309.63" gradientTransform="matrix(1, 0, 0, 1, 0, 0)" xlink:href="#Degradado_sin_nombre_47"/><linearGradient id="Degradado_sin_nombre_68-2" x1="359.27" y1="28.42" x2="285.08" y2="-14.42" xlink:href="#Degradado_sin_nombre_68"/><linearGradient id="Degradado_sin_nombre_26-2" x1="303.04" y1="-94.62" x2="506.78" y2="-94.62" gradientTransform="translate(-12.93 261.44) rotate(-9.35)" xlink:href="#Degradado_sin_nombre_26"/><linearGradient id="Degradado_sin_nombre_23" x1="505.73" y1="-66.28" x2="303.98" y2="-66.28" gradientTransform="translate(-12.93 261.44) rotate(-9.35)" gradientUnits="userSpaceOnUse"><stop offset="0" stop-color="#ffda00"/><stop offset="0.54" stop-color="#f7af27"/><stop offset="0.82" stop-color="#f3973d"/></linearGradient><linearGradient id="Degradado_sin_nombre_26-3" x1="233.54" y1="447.32" x2="291.18" y2="447.32" gradientTransform="matrix(1, 0, 0, 1, 0, 0)" xlink:href="#Degradado_sin_nombre_26"/><linearGradient id="Degradado_sin_nombre_26-4" x1="330.83" y1="405.46" x2="269.58" y2="405.46" gradientTransform="matrix(1, 0, 0, 1, 0, 0)" xlink:href="#Degradado_sin_nombre_26"/><linearGradient id="Degradado_sin_nombre_26-5" x1="330.83" y1="376.63" x2="269.58" y2="376.63" gradientTransform="matrix(1, 0, 0, 1, 0, 0)" xlink:href="#Degradado_sin_nombre_26"/><linearGradient id="Degradado_sin_nombre_26-6" x1="330.83" y1="349.25" x2="269.58" y2="349.25" gradientTransform="matrix(1, 0, 0, 1, 0, 0)" xlink:href="#Degradado_sin_nombre_26"/><linearGradient id="Degradado_sin_nombre_26-7" x1="309.94" y1="432.84" x2="269.58" y2="432.84" gradientTransform="matrix(1, 0, 0, 1, 0, 0)" xlink:href="#Degradado_sin_nombre_26"/></defs><title>nivel2-gatsby</title><path class="cls-1" d="M432.73,172c-181.37,0-328.41,147-328.41,328.42H761.15C761.15,319.08,614.11,172,432.73,172Z"/><path class="cls-2" d="M428.06,373.64H113.46a41.2,41.2,0,1,0,0,82.4H419.62A354.57,354.57,0,0,1,428.06,373.64Z"/><path class="cls-2" d="M428.06,247.43H113.46a41.2,41.2,0,0,0,0,82.4H419.62A354.57,354.57,0,0,1,428.06,247.43Z"/><path class="cls-2" d="M428.06,128.36H113.46a41.2,41.2,0,0,0,0,82.4H419.62A354.51,354.51,0,0,1,428.06,128.36Z"/><path class="cls-2" d="M432.73,259.81c-132.91,0-240.65,107.74-240.65,240.65H673.39C673.39,367.55,565.64,259.81,432.73,259.81Z"/><path class="cls-3" d="M755.36,568.21H113.46A41.21,41.21,0,0,1,72.26,527h0a41.21,41.21,0,0,1,41.2-41.2h641.9a41.21,41.21,0,0,1,41.2,41.2h0A41.21,41.21,0,0,1,755.36,568.21Z"/><path class="cls-4" d="M755.36,568.21H113.46A41.21,41.21,0,0,1,72.26,527h0a41.21,41.21,0,0,1,41.2-41.2h641.9a41.21,41.21,0,0,1,41.2,41.2h0A41.21,41.21,0,0,1,755.36,568.21Z"/><polygon class="cls-1" points="219.85 478.45 273.9 569.05 291.18 480.94 219.85 478.45"/><path class="cls-5" d="M284.46,333.82l-20.34,32.33a11.53,11.53,0,0,1-15.9,3.62h0a11.54,11.54,0,0,1-3.62-15.9l20.34-32.33a11.55,11.55,0,0,1,15.91-3.62h0A11.52,11.52,0,0,1,284.46,333.82Z"/><rect class="cls-6" x="357.5" y="330.51" width="148.46" height="82.16"/><path class="cls-1" d="M629.91,569.05h-356l-22.34-84.64a81.11,81.11,0,0,1,81.12-81.11H546.62a83.29,83.29,0,0,1,83.29,83.29Z"/><path class="cls-7" d="M524.84,267.32h0a16.58,16.58,0,0,1-10-21.22l12.38-34.3a16.57,16.57,0,0,1,21.21-10h0a16.59,16.59,0,0,1,10,21.22l-12.38,34.3A16.59,16.59,0,0,1,524.84,267.32Z"/><path class="cls-7" d="M553.83,164.22c12.92,78.46-36.63,152-110.66,164.14s-144.52-41.54-157.44-120,36.62-152,110.66-164.15S540.91,85.75,553.83,164.22Z"/><path class="cls-7" d="M535.54,256.58A102.81,102.81,0,1,1,417.4,171.84,102.81,102.81,0,0,1,535.54,256.58Z"/><path class="cls-7" d="M484.91,354.1c3,18.37-10.87,36-31,39.28s-39-8.88-42-27.26,10.87-36,31-39.28S481.89,335.72,484.91,354.1Z"/><polygon class="cls-7" points="364.54 348.98 436.63 392.47 432.98 362.65 364.54 348.98"/><polygon class="cls-7" points="475.49 382.32 524.26 322.68 465.21 319.92 475.49 382.32"/><path class="cls-8" d="M396.39,44.21l-.15,0L453.72,393.4l.15,0a38.45,38.45,0,0,0,25.79-16.16l20.74-25.36a102.76,102.76,0,0,0,36-89.13,148.58,148.58,0,0,0,17.47-98.51C540.91,85.75,470.42,32,396.39,44.21Z"/><path class="cls-7" d="M332.1,302.19h0a16.59,16.59,0,0,1-22.65-6.06l-18.23-31.58a16.58,16.58,0,0,1,6.07-22.65h0A16.58,16.58,0,0,1,319.93,248l18.23,31.58A16.57,16.57,0,0,1,332.1,302.19Z"/><path class="cls-9" d="M473.69,104s17.13,24,53.89,29.74c20.9,10.09,27.38,71.34,27.38,71.34s3.13-78.18-35.31-124.67c-24-29.07-62.83-46.34-62.94-45.82C454.28,46.22,473.69,104,473.69,104Z"/><path class="cls-10" d="M421.64,300.24s-4.35-5.73-13,4.33c-4.33,5,.55,6.74-7.18,15.45s-21.57,1.45-26.64,8.11-5,20.76-2.22,27.6c.14.35-29.54-20.9-38.91-59.81-6.49-2.88-21.62-22.34-21.62-22.34s13-18,27.38-22.34c21.4-6.42,67.64-8.41,67.64-8.41s10.39,10.84,13.07,23.8S421.64,300.24,421.64,300.24Z"/><path class="cls-11" d="M449.74,295.2s7.21-5.77,13,2.16c0,0,8.64,9.37,20.62,9.1,11.65-.26,20.34-7.32,27.66-3.25s2.16,13.61,11.53,22.25c.28.26,18-27.38,13.69-62.69,7.93-12.25,12.26-28.11,12.26-28.11a145.2,145.2,0,0,0-29.55-10.81C497.26,218.43,447.24,238,447.24,238a147.21,147.21,0,0,0-3.15,27C444,283.67,449.74,295.2,449.74,295.2Z"/><path class="cls-12" d="M423,301.32l11.35,14.19,5.06,1.76L427.4,244l-18.73,4.32s12.84,20.93,14,44.79a17.55,17.55,0,0,1-1.19,6.87A11.41,11.41,0,0,1,423,301.32Z"/><path class="cls-12" d="M450.72,295a17.66,17.66,0,0,1-3.39-6.12c-6.68-22.94.25-50.62.25-50.62L427.4,244l11.48,70.12L447.61,298A13.87,13.87,0,0,1,450.72,295Z"/><path class="cls-13" d="M435.34,319.71s13.79-1.19,20.08-8.85c6.77-8.23,8.95-14.79,3.44-17-6.43-2.6-11.25,4.15-11.25,4.15Z"/><path class="cls-14" d="M438.69,320.94s-13.07,1.3-19.61-5.23-10.54-11.85-6.54-15.69c4.91-4.71,10.46,1.3,10.46,1.3Z"/><path class="cls-15" d="M446.54,312.44a8.5,8.5,0,1,0-8.5,8.5A8.5,8.5,0,0,0,446.54,312.44Z"/><path class="cls-16" d="M421,317.27a28.52,28.52,0,0,0,4.2,2.11c1.22.33,4.78,1.2,4.78,1.2a6.57,6.57,0,0,0-4.37-3.31A9.71,9.71,0,0,0,421,317.27Z"/><path class="cls-16" d="M448.66,316a33.31,33.31,0,0,0,4.58-2.78c.81-.81,2.48-2.71,2.48-2.71a12.37,12.37,0,0,0-4.11,1.9C448.36,314.83,448.66,316,448.66,316Z"/><g class="cls-17"><path class="cls-18" d="M363.44,210.15a36.13,36.13,0,0,1,6.37-4.85,53.27,53.27,0,0,1,7-3.64A70.8,70.8,0,0,1,392,197.05c1.31-.22,2.59-.46,3.93-.65.69-.07,1.4-.17,2.09-.2s1.38-.06,2.06-.06a62.6,62.6,0,0,1,8,.54,127.85,127.85,0,0,1,15.57,2.95h0l-2.93.55a138.32,138.32,0,0,1,11.94-7.52,55.1,55.1,0,0,1,6.51-3.13c.56-.25,1.2-.42,1.8-.63s1.16-.31,1.74-.46c1.15-.32,2.31-.54,3.47-.79a108.07,108.07,0,0,1,13.9-1.7c4.63-.27,9.25-.36,13.88-.2a.72.72,0,0,1,0,1.44h0c-4.54.26-9.1.77-13.6,1.45a103.84,103.84,0,0,0-13.24,2.86c-1.06.34-2.14.64-3.17,1-.52.19-1.06.37-1.55.57s-.93.38-1.4.64a53.2,53.2,0,0,0-5.62,3.37c-3.67,2.51-7.28,5.33-10.67,8.19a3,3,0,0,1-2.92.55h0A122,122,0,0,0,407.26,202a58.5,58.5,0,0,0-7.33-1l-1.8-.07c-.6,0-1.17,0-1.76,0-1.21.09-2.48.24-3.72.35A66.78,66.78,0,0,0,378,204.59a49.47,49.47,0,0,0-6.9,3,34.08,34.08,0,0,0-6.22,4l-.07.05a1,1,0,0,1-1.43-.11A1,1,0,0,1,363.44,210.15Z"/></g><g class="cls-17"><path class="cls-18" d="M390.58,217.67a31.67,31.67,0,0,1,8.16-4.5,48,48,0,0,1,9-2.47c.77-.15,1.54-.25,2.31-.35l1.15-.15,1.26-.09a23,23,0,0,1,4.87.44,44,44,0,0,1,9.09,2.87l-2.55.44h0a63.49,63.49,0,0,1,6.94-5.74,24.79,24.79,0,0,1,4-2.36,10.47,10.47,0,0,1,1.19-.45,7.89,7.89,0,0,1,1.25-.27q1.11-.18,2.22-.3c2.94-.34,5.87-.48,8.79-.55s5.83,0,8.75.1a.48.48,0,0,1,0,1h0c-2.87.17-5.76.44-8.62.79s-5.7.8-8.47,1.41c-.69.15-1.38.32-2.06.5a4.49,4.49,0,0,0-.85.27,6.62,6.62,0,0,0-.81.39,20.49,20.49,0,0,0-3.26,2.34,60.35,60.35,0,0,0-6,5.89h0l-.15.14a2.06,2.06,0,0,1-2.39.3,39.76,39.76,0,0,0-7.93-3.31,19.8,19.8,0,0,0-4.1-.75l-1,0-1.1.06c-.73,0-1.47.08-2.2.16a45.58,45.58,0,0,0-8.66,1.69,30,30,0,0,0-8,3.61l-.06,0a.68.68,0,0,1-.8-1.09Z"/></g><g class="cls-17"><path class="cls-18" d="M345.66,204.36A178.5,178.5,0,0,1,363,192.94a126.14,126.14,0,0,1,18.78-9.1,69.23,69.23,0,0,1,10.16-3c.88-.18,1.75-.36,2.65-.49s1.81-.25,2.75-.34,1.84-.09,2.75-.11,1.82,0,2.71.07a91.78,91.78,0,0,1,10.55,1.23c3.47.61,6.86,1.31,10.34,2.19l-2.87.5c2.95-2,5.87-3.78,8.89-5.56a88,88,0,0,1,9.41-4.92c1.73-.72,3.41-1.29,5.1-1.82s3.4-1,5.12-1.37a83.9,83.9,0,0,1,10.4-1.64,115,115,0,0,1,20.83,0A132.32,132.32,0,0,1,501,171.94a.72.72,0,0,1-.31,1.41h0a131.31,131.31,0,0,0-20.27-2.29,112.24,112.24,0,0,0-20.26,1,79,79,0,0,0-9.83,2.06c-1.61.45-3.19.95-4.75,1.52a32.88,32.88,0,0,0-4.47,1.93,85,85,0,0,0-8.37,5.42c-2.73,2-5.45,4-8,6.13a3,3,0,0,1-2.78.52l-.08,0a108.71,108.71,0,0,0-19.44-4.66c-.82-.12-1.62-.15-2.43-.24s-1.61-.08-2.39-.07a19.62,19.62,0,0,0-2.38.15c-.81.07-1.62.2-2.43.33a66.51,66.51,0,0,0-9.68,2.42,124.66,124.66,0,0,0-18.64,8A177.23,177.23,0,0,0,346.87,206l0,0a1,1,0,0,1-1.18-1.66Z"/></g><path class="cls-19" d="M331.94,164.47l7.34,74.64c-19.94,4.11-14.47,13.54-9.81,25.53,5.72,14.72-11,17.53-11.28,17.16-44.41-59.93-37.7-119.33-37.7-119.33Z"/><path class="cls-20" d="M281.14,173s44.39,13.65,62.83-5.59c8.44-8.81,7.95-31.82,25.35-36.33s45.42,25.5,45.42,25.5L473.69,104s-3.39-45.61-15.31-69.15c-.09-.18-57.42-12-103.86,6.33C295.25,64.64,264.67,134.72,281.14,173Z"/><path class="cls-21" d="M473.69,104s-30.33-14-57.87-21c-27.09-6.9-61.25-1.46-76.54,20.84s2.3,29.19-10.93,48.8c-11.27,16.69-47.65,21-47.65,21s48.49,29.12,69.27.14c14.08-19.62.08-39.59,19.35-42.76,16.05-2.64,17,12.87,17,12.87l30.31,23.87Z"/><path class="cls-22" d="M396.41,335.55s23.92,15,34.6,18,23.78-2.16,23.78-2.16,14.41-8.65,29.55-28.83c.31-.41-41.79,14.67-41.79,14.67Z"/><path class="cls-23" d="M396.41,335.55A94,94,0,0,0,418,342c8.61,1.4,18.18.54,25.22-.72,7.57-1.35,16-2.58,22.34-5.77a61.6,61.6,0,0,0,17.29-13s-13.69,7.93-34.24,8.48c-4,.11-4.58,3.05-7.63,3.05s-5.94-1.71-10.68,0C422.36,337,396.41,335.55,396.41,335.55Z"/><path class="cls-24" d="M473.34,366.86c.94,5.68-9,12-22.1,14.2s-24.55-.68-25.49-6.37,9-12,22.1-14.2S472.41,361.18,473.34,366.86Z"/><g class="cls-17"><path class="cls-18" d="M480.85,308.74a33.39,33.39,0,0,0,7.7,3.58,18.27,18.27,0,0,0,4,.81,12.26,12.26,0,0,0,1.92,0l2.15-.18a41.65,41.65,0,0,1,4.54-.19,14.53,14.53,0,0,1,5,1,9.84,9.84,0,0,1,4.45,3.62,11.58,11.58,0,0,1,1.29,2.49,8.46,8.46,0,0,1,.37,1.28c0,.21.08.42.11.64s.06.41.08.73a9.46,9.46,0,0,1-.32,3,17.31,17.31,0,0,1-.84,2.4,33.4,33.4,0,0,1-2.19,4.12,74.73,74.73,0,0,1-5.16,7.23,151.1,151.1,0,0,1-11.67,12.93c1.67-2.36,3.26-4.77,4.8-7.2s3-4.88,4.43-7.37a71.76,71.76,0,0,0,3.74-7.57,26.86,26.86,0,0,0,1.28-3.79,6.54,6.54,0,0,0,.22-3.06l-.09-.33-.11-.42c-.08-.27-.13-.55-.2-.8a7.47,7.47,0,0,0-.45-1.45A4.75,4.75,0,0,0,504,318c-1.78-1.13-4.61-1.46-7.42-1.66l-2.17-.16a15.23,15.23,0,0,1-2.37-.4,20,20,0,0,1-4.28-1.65,33.84,33.84,0,0,1-7.18-5.11.19.19,0,0,1,0-.27.19.19,0,0,1,.24,0Z"/></g><g class="cls-17"><path class="cls-18" d="M408.85,322a33.84,33.84,0,0,1-7.18,5.11,20.2,20.2,0,0,1-4.28,1.65,13.14,13.14,0,0,1-2.38.4l-2.17.16c-2.81.2-5.64.53-7.42,1.66a4.66,4.66,0,0,0-1.83,2.12,7.47,7.47,0,0,0-.46,1.45c-.07.26-.11.53-.2.8l-.1.42a2.93,2.93,0,0,1-.1.33,6.86,6.86,0,0,0,.22,3.07,28.55,28.55,0,0,0,1.28,3.78,71.76,71.76,0,0,0,3.74,7.57c1.39,2.49,2.89,4.94,4.43,7.37s3.14,4.84,4.8,7.2a151,151,0,0,1-11.66-12.93,76.58,76.58,0,0,1-5.17-7.23,32.06,32.06,0,0,1-2.18-4.12,16.86,16.86,0,0,1-.84-2.4,9.45,9.45,0,0,1-.33-3c0-.32.06-.52.09-.73s.05-.43.1-.64a8.51,8.51,0,0,1,.38-1.28,11.58,11.58,0,0,1,1.29-2.49,9.9,9.9,0,0,1,4.45-3.62,14.19,14.19,0,0,1,5-.95,39.16,39.16,0,0,1,4.53.18l2.15.18a11.17,11.17,0,0,0,1.92,0,18.36,18.36,0,0,0,4-.81,32.92,32.92,0,0,0,7.69-3.58h0a.18.18,0,0,1,.26.06A.2.2,0,0,1,408.85,322Z"/></g><path class="cls-15" d="M486,266.19c11.56-2.77,19.13-12.56,16.9-21.87l-41.87,10C463.27,263.64,474.45,269,486,266.19Z"/><path class="cls-25" d="M461.28,255.33S463.14,242,479,237.65c17.68-4.83,24.11,6.43,24.11,6.43s-6.43,8-19.29,11.25S461.28,255.33,461.28,255.33Z"/><path class="cls-26" d="M489.38,246.55a9,9,0,1,1-9-9A9,9,0,0,1,489.38,246.55Z"/><path class="cls-27" d="M516.62,236.55l-10.45,13.5s-3.1-8.18-25.44-4.58c-19.77,3.19-34.5,22.45-34.5,22.45-5.33-23.07,1.84-31.32,1.84-31.32s39.72-20.95,44-18.25S516.62,236.55,516.62,236.55Z"/><path class="cls-15" d="M390.5,285.83c11.82-1.24,20.59-10,19.59-19.49l-42.82,4.51C368.28,280.37,378.67,287.08,390.5,285.83Z"/><path class="cls-25" d="M410.07,264.57s-6.83-11.64-23.1-9.6c-18.18,2.29-19.83,15.15-19.83,15.15s9,5,22.12,3S410.07,264.57,410.07,264.57Z"/><path class="cls-26" d="M380.74,267.18a9,9,0,1,0,4.89-11.77A9,9,0,0,0,380.74,267.18Z"/><path class="cls-27" d="M351,265.65l13,8.65s4.32-8.65,22.34-11.53,34.59,9.37,34.59,9.37c-2.16-21.62-12.42-25.41-12.42-25.41s-38.75-7.74-41.63-4.14S351,265.65,351,265.65Z"/><path class="cls-28" d="M412.12,248.83s-14.81-14.07-29.77-14.07c-17.86,0-43.17,16.37-43.17,16.37a17,17,0,0,0,3.91,8,27.65,27.65,0,0,0,7.92,6.49s13-18.74,26.13-16.75c5.2.78,8.15.95,17.12,2.23A32.37,32.37,0,0,0,412.12,248.83Z"/><path class="cls-28" d="M447.24,238s11.35-15.25,25.83-19c17.29-4.48,45.9,5,45.9,5a11.91,11.91,0,0,1,0,9.22c-2.16,5.05-5.77,6.49-5.77,6.49a48.21,48.21,0,0,0-31.71-10.09c-5.26.19-7.44,4.73-15.8,8.22A25,25,0,0,1,447.24,238Z"/><path class="cls-27" d="M460.75,360.11c.47,2.87-4.54,6.09-11.18,7.18s-12.42-.34-12.9-3.22,4.53-6.09,11.18-7.19S460.27,357.23,460.75,360.11Z"/><g class="cls-17"><path class="cls-18" d="M474.36,316a23,23,0,0,0,5.46,2.26,11.56,11.56,0,0,0,2.73.43,8.86,8.86,0,0,0,1.28-.06l1.5-.18a27.11,27.11,0,0,1,3.23-.23,10.5,10.5,0,0,1,3.75.63,7.64,7.64,0,0,1,3.5,2.76,8.5,8.5,0,0,1,1,1.89,4.9,4.9,0,0,1,.29,1,4,4,0,0,1,.08.48,5.21,5.21,0,0,1,.05.57,7,7,0,0,1-.29,2.34,11.2,11.2,0,0,1-.66,1.78,23.2,23.2,0,0,1-1.66,2.92,51.11,51.11,0,0,1-3.83,5,100.92,100.92,0,0,1-8.51,8.78c1.1-1.69,2.16-3.42,3.17-5.17s2-3.48,2.91-5.25a48.31,48.31,0,0,0,2.39-5.34,16.62,16.62,0,0,0,.76-2.59,3,3,0,0,0,0-1.79s0-.08-.06-.17-.06-.18-.08-.26a4.31,4.31,0,0,1-.11-.49,4.65,4.65,0,0,0-.19-.85,2.48,2.48,0,0,0-.89-1.26c-1-.75-2.91-1.09-4.86-1.29l-1.52-.17a10.81,10.81,0,0,1-1.73-.34,14.45,14.45,0,0,1-3-1.28,23.52,23.52,0,0,1-4.94-3.8.19.19,0,0,1,0-.27.18.18,0,0,1,.22,0Z"/></g><path class="cls-29" d="M411,302.17s-4.25,4.56-4.35,6.72-1.92,10.81-7.13,13A85.45,85.45,0,0,1,388,325.47s12.46,1.91,16.58-.85,7.73-7.8,7.73-10.69a15.64,15.64,0,0,1,.82-5A16.2,16.2,0,0,1,411,302.17Z"/><path class="cls-29" d="M462,296.64s7.09,8.46,16.57,9.37c9.71.92,15.86-.72,15.86-.72s-7.93,7.2-15.14,6.48c-8-.8-7.2-3.6-11.53-6.48-2.47-1.65-7.21-2.17-7.21-2.17S462.72,299.52,462,296.64Z"/><path class="cls-1" d="M357.5,371.59,391,403.3,251.56,486.17v-52.6S278.23,378.79,357.5,371.59Z"/><path class="cls-1" d="M506,368.42s27.38,33.44,42.52,34.88S506,429.24,506,429.24Z"/><path class="cls-30" d="M377.19,390.22l75,13.08L506,368.71s11.53,85-29.55,158.54"/><path class="cls-30" d="M327,431.3c-3.33-4.35-5.42-11.58-6.46-16V359.12h-9.69v53.25c-.6,3.11-2.85,13.44-7.14,19-11.91,1.11-20.33,3.81-20.33,7,0,4.14,14.47,7.5,32.32,7.5s32.31-3.36,32.31-7.5C348,435.11,339.23,432.37,327,431.3Z"/><path class="cls-31" d="M380.46,305.57c0-4.14-29.16-7.49-65.12-7.49s-65.11,3.35-65.11,7.49,29.15,7.5,65.11,7.5S380.46,309.71,380.46,305.57Z"/><path class="cls-31" d="M315.34,360.09c35.68,0,64.6-24.17,64.6-54H250.74C250.74,335.92,279.66,360.09,315.34,360.09Z"/><path class="cls-32" d="M315.34,360.09c27.49,0,51-14.35,60.28-34.58-9,6.08-40.42,5.52-50.1,7.45s-36.83-3.87-44.58-4.84c-5.77-.72-18.51-.37-24.65-.14C266.33,346.89,289,360.09,315.34,360.09Z"/><path class="cls-1" d="M305.61,443.65c0,29.06-21.94,52.61-49,52.61s-49-23.55-49-52.61,21.94-52.6,49-52.6S305.61,414.6,305.61,443.65Z"/><path class="cls-30" d="M291.18,443.29c0,20.5-15.48,37.12-34.57,37.12S222,463.79,222,443.29s15.48-37.11,34.58-37.11S291.18,422.8,291.18,443.29Z"/><path class="cls-33" d="M287.63,459.69l3.55-16.4L235.38,414c-.63.53-1.25,1.07-1.84,1.65l5.05,59.7,10.26,4.1a25.51,25.51,0,0,0,15.52,0C273.18,476.8,283.09,469.55,287.63,459.69Z"/><path class="cls-34" d="M229.94,391.05a53.33,53.33,0,0,0,53.33,53.32V337.72A53.33,53.33,0,0,0,229.94,391.05Z"/><path class="cls-35" d="M319.3,417H281.11a11.53,11.53,0,0,1-11.53-11.53h0a11.53,11.53,0,0,1,11.53-11.53H319.3a11.53,11.53,0,0,1,11.53,11.53h0A11.53,11.53,0,0,1,319.3,417Z"/><path class="cls-36" d="M319.3,388.16H281.11a11.53,11.53,0,0,1-11.53-11.53h0a11.53,11.53,0,0,1,11.53-11.53H319.3a11.53,11.53,0,0,1,11.53,11.53h0A11.53,11.53,0,0,1,319.3,388.16Z"/><path class="cls-37" d="M319.3,360.78H281.11a11.53,11.53,0,0,1-11.53-11.53h0a11.53,11.53,0,0,1,11.53-11.53H319.3a11.53,11.53,0,0,1,11.53,11.53h0A11.53,11.53,0,0,1,319.3,360.78Z"/><path class="cls-38" d="M298.4,444.37H281.11a11.53,11.53,0,0,1-11.53-11.53h0a11.53,11.53,0,0,1,11.53-11.53H298.4a11.54,11.54,0,0,1,11.54,11.53h0A11.54,11.54,0,0,1,298.4,444.37Z"/><path class="cls-1" d="M467.38,419.48a16.38,16.38,0,1,1-14.67-17.94A16.38,16.38,0,0,1,467.38,419.48Z"/><path class="cls-1" d="M426.26,442.7l-28.08,2.82c-4.7.47-9-4-9.62-9.94L395.3,424l-8.91-10c-.59-5.94,2.76-11.19,7.46-11.66l31.66-3.17c8.4-.84,28.29,20.79,28.29,20.79S436.63,441.66,426.26,442.7Z"/><path class="cls-1" d="M485.1,431.07l27.79-4.94c4.65-.83,7.59-6.31,6.55-12.19l-9.64-9.3,5.84-12.06c-1-5.88-5.7-10-10.35-9.18L474,389c-8.31,1.48-21.56,27.72-21.56,27.72S474.84,432.9,485.1,431.07Z"/><path class="cls-4" d="M649.5,269.66,709.17,220a30.58,30.58,0,0,1,43.07,3.93h0A30.57,30.57,0,0,1,748.32,267l-59.68,49.7a30.57,30.57,0,0,1-43.07-3.92h0A30.58,30.58,0,0,1,649.5,269.66Z"/><path class="cls-4" d="M714.57,370.08l75.64-17.63a30.58,30.58,0,0,1,36.72,22.84h0A30.57,30.57,0,0,1,804.09,412l-75.64,17.63a30.57,30.57,0,0,1-36.72-22.84h0A30.57,30.57,0,0,1,714.57,370.08Z"/><path class="cls-4" d="M567.11,200.87l40.38-66.34a30.58,30.58,0,0,1,42-10.23h0a30.58,30.58,0,0,1,10.22,42l-40.37,66.34a30.59,30.59,0,0,1-42,10.23h0A30.59,30.59,0,0,1,567.11,200.87Z"/></svg>