<svg id="Capa_1" data-name="Capa 1" xmlns="http://www.w3.org/2000/svg" xmlns:xlink="http://www.w3.org/1999/xlink" viewBox="0 0 900 600"><defs><style>.cls-1{fill:#00758d;}.cls-2{fill:#3bb14a;}.cls-3{fill:#ffcb05;}.cls-4{fill:#3f3e40;}.cls-25,.cls-5{fill:#fff;}.cls-6{fill:#2d202b;}.cls-7{fill:#513f4e;}.cls-8{fill:#725e6e;}.cls-9{opacity:0.89;fill:url(#linear-gradient);}.cls-10,.cls-12,.cls-13,.cls-14,.cls-15,.cls-16,.cls-17,.cls-18,.cls-22,.cls-24,.cls-25,.cls-28,.cls-31,.cls-32,.cls-9{isolation:isolate;}.cls-10,.cls-16,.cls-17,.cls-22,.cls-24,.cls-31,.cls-32{opacity:0.37;}.cls-10{fill:url(#linear-gradient-2);}.cls-11{fill:#f9c99e;}.cls-12{fill:#332f30;}.cls-12,.cls-28{opacity:0.2;}.cls-13,.cls-14{opacity:0.79;}.cls-13{fill:url(#linear-gradient-3);}.cls-14{fill:url(#linear-gradient-4);}.cls-15,.cls-18,.cls-27,.cls-28{fill:#fee5c7;}.cls-15{opacity:0.38;}.cls-16{fill:url(#linear-gradient-5);}.cls-17{fill:url(#linear-gradient-6);}.cls-18{opacity:0.33;}.cls-19{fill:#af545d;}.cls-20{fill:#f6947c;}.cls-21{fill:#446825;}.cls-22{fill:url(#linear-gradient-7);}.cls-23{fill:#fecea5;}.cls-24{fill:url(#linear-gradient-8);}.cls-25{opacity:0.42;}.cls-26{fill:#34174a;}.cls-29{fill:#26cad3;}.cls-30{fill:#2da6de;}.cls-31{fill:url(#linear-gradient-9);}.cls-32{fill:url(#linear-gradient-10);}.cls-33{fill:#7a356b;}.cls-34{fill:url(#linear-gradient-11);}.cls-35{fill:#352f33;}.cls-36{fill:#ef4136;}</style><linearGradient id="linear-gradient" x1="-164.1" y1="459.55" x2="-42.3" y2="459.55" gradientTransform="matrix(1, 0, 0, -1, 564, 836)" gradientUnits="userSpaceOnUse"><stop offset="0" stop-color="#fca472"/><stop offset="0.74" stop-color="#d1834d"/><stop offset="0.78" stop-color="#cf814b"/></linearGradient><linearGradient id="linear-gradient-2" x1="-73.75" y1="382.1" x2="-73.75" y2="537" gradientTransform="matrix(1, 0, 0, -1, 564, 836)" gradientUnits="userSpaceOnUse"><stop offset="0" stop-color="#f9c99e"/><stop offset="0.36" stop-color="#f8c79c"/><stop offset="0.49" stop-color="#f5c195"/><stop offset="0.59" stop-color="#efb78a"/><stop offset="0.66" stop-color="#e6a979"/><stop offset="0.73" stop-color="#db9663"/><stop offset="0.78" stop-color="#cf814b"/></linearGradient><linearGradient id="linear-gradient-3" x1="-95.8" y1="605.9" x2="-27" y2="605.9" xlink:href="#linear-gradient"/><linearGradient id="linear-gradient-4" x1="-180.2" y1="606.3" x2="-111.4" y2="606.3" xlink:href="#linear-gradient"/><linearGradient id="linear-gradient-5" x1="-77.6" y1="546.7" x2="1.7" y2="546.7" gradientTransform="matrix(1, 0, 0, -1, 564, 836)" gradientUnits="userSpaceOnUse"><stop offset="0" stop-color="#f9c99e"/><stop offset="0.16" stop-color="#f4c093"/><stop offset="0.44" stop-color="#e5a777"/><stop offset="0.78" stop-color="#cf814b"/></linearGradient><linearGradient id="linear-gradient-6" x1="5514.11" y1="546.65" x2="5593.41" y2="546.65" gradientTransform="translate(5949.51 836) rotate(180)" xlink:href="#linear-gradient-5"/><linearGradient id="linear-gradient-7" x1="5370.1" y1="562.21" x2="5390.32" y2="562.21" gradientTransform="translate(5828.43 836) rotate(180)" xlink:href="#linear-gradient"/><linearGradient id="linear-gradient-8" x1="-100.54" y1="562.21" x2="-80.32" y2="562.21" xlink:href="#linear-gradient"/><linearGradient id="linear-gradient-9" x1="5223.81" y1="648.53" x2="5259.42" y2="710.2" gradientTransform="translate(5629.41 836) rotate(180)" xlink:href="#linear-gradient-5"/><linearGradient id="linear-gradient-10" x1="11.54" y1="648.53" x2="47.15" y2="710.2" gradientTransform="matrix(1, 0, 0, -1, 504.76, 836)" xlink:href="#linear-gradient-5"/><linearGradient id="linear-gradient-11" x1="-185.46" y1="790.89" x2="-96.8" y2="702.22" gradientTransform="matrix(1, 0, 0, -1, 564, 836)" gradientUnits="userSpaceOnUse"><stop offset="0" stop-color="#2d1758"/><stop offset="0.53" stop-color="#582459"/><stop offset="0.78" stop-color="#6d2a5a"/></linearGradient></defs><title>nivel23-gatsby_Mesa de trabajo 1</title><g id="Capa_3" data-name="Capa 3"><circle class="cls-1" cx="293.2" cy="345.8" r="214.6"/><path class="cls-2" d="M560.9,110.3s35.6-12.8,57,16c33.8,45.6-52.9,80.6-18.2,115.2,18.2,18.2,57.1-22.7,77.4,22.9,18.6,41.6-44.2,63.5-31.2,94.5,19.6,46.9,64.6,0,94.3,54.5H483.7V123.9l77.2-13.6"/><path class="cls-3" d="M780.2,478.5H138.3a41.21,41.21,0,0,1-41.2-41.2h0a41.21,41.21,0,0,1,41.2-41.2H780.2a41.21,41.21,0,0,1,41.2,41.2h0A41.21,41.21,0,0,1,780.2,478.5Z"/><path class="cls-4" d="M769.7,581.3h-621A51.7,51.7,0,0,1,97,529.6h0a51.7,51.7,0,0,1,51.7-51.7h621a51.7,51.7,0,0,1,51.7,51.7h0A51.7,51.7,0,0,1,769.7,581.3Z"/><circle class="cls-2" cx="303.1" cy="379.7" r="126.5"/><path class="cls-5" d="M293.2,287.2h0A22.21,22.21,0,0,1,271,265V208.5a22.21,22.21,0,0,1,22.2-22.2h0a22.21,22.21,0,0,1,22.2,22.2V265A22.21,22.21,0,0,1,293.2,287.2Z"/><path class="cls-5" d="M253.8,314.8h0a22.27,22.27,0,0,1-31.5,0l-40-40a22.27,22.27,0,0,1,0-31.5h0a22.27,22.27,0,0,1,31.5,0l40,40A22.27,22.27,0,0,1,253.8,314.8Z"/><path class="cls-5" d="M241.2,359.7h0A22.21,22.21,0,0,1,219,381.9H162.5a22.21,22.21,0,0,1-22.2-22.2h0a22.21,22.21,0,0,1,22.2-22.2H219A22.21,22.21,0,0,1,241.2,359.7Z"/></g><path class="cls-6" d="M677,554.5H241.9V484.7a92.48,92.48,0,0,1,92.5-92.5H605.9A71.12,71.12,0,0,1,677,463.3v91.2Z"/><path class="cls-6" d="M527.2,325.9s69-20,98,36.3c30.3,58.5-18.1,100.7-18.1,100.7L459.2,539.1V379.4Z"/><path class="cls-7" d="M393.8,325.9s-69-20-98,36.3C265.6,420.8,314,462.9,314,462.9l147.9,76.2V379.4Z"/><path class="cls-7" d="M512,325.1s53.2-15.4,75.5,28c23.3,45.1-14,77.6-14,77.6l-114,58.8V366.4Z"/><path class="cls-8" d="M409.1,325.1s-53.2-15.4-75.5,28c-23.3,45.1,14,77.6,14,77.6l114,58.8V366.4Z"/><path class="cls-9" d="M521.7,397.2c0,29-60.9,56.7-60.9,56.7s-60.9-28.3-60.9-56.7V299H521.7Z"/><path class="cls-10" d="M459.8,299V453.9s60.9-27.7,60.9-56.7V299Z"/><path class="cls-11" d="M482.4,376.2H439.3C424.9,376.2,356,289,356,289V144.6c0-48.2,38.2-87.2,85.4-87.2h38.8c47.2,0,85.4,39,85.4,87.2V288.9C565.7,289,495.4,376.2,482.4,376.2Z"/><path class="cls-12" d="M479.9,57.5H460.5V376.2H482c12.9,0,83.3-87.2,83.3-87.2V144.6C565.3,96.5,527,57.5,479.9,57.5Z"/><path class="cls-13" d="M502.6,195.7a34.4,34.4,0,1,1-34.4,34.4A34.4,34.4,0,0,1,502.6,195.7Z"/><path class="cls-14" d="M418.2,195.3a34.4,34.4,0,1,1-34.4,34.4A34.4,34.4,0,0,1,418.2,195.3Z"/><path class="cls-15" d="M415.1,199.2c13.59,0,24.6,11.6,24.6,25.9s-11,25.9-24.6,25.9-24.6-11.6-24.6-25.9S401.51,199.2,415.1,199.2Z"/><path class="cls-15" d="M504.4,199.2c13.59,0,24.6,11.6,24.6,25.9S518,251,504.4,251s-24.6-11.6-24.6-25.9S490.81,199.2,504.4,199.2Z"/><path class="cls-16" d="M565.7,289V204c-6.1,1.3-14.3,4.6-14.9,12.4v48.3c-12.7,34.9-29.7,22.4-40.7,48.2-6,14-1.8,21.3-5.9,31.6-7.6,19.1-7.6,13.3-17.8,30l.2.1C506.1,362.8,565.7,289,565.7,289Z"/><path class="cls-17" d="M356.1,289V204c6.1,1.3,14.3,4.6,14.9,12.4v48.3c12.7,34.9,29.7,22.5,40.7,48.3,6,14,1.8,21.3,5.9,31.6,7.6,19.1,7.6,13.3,17.8,30l-.2.1C415.7,362.8,356.1,289,356.1,289Z"/><path class="cls-18" d="M477,379.7H444.8a16.1,16.1,0,0,0,32.2,0Z"/><path class="cls-11" d="M356.2,197.3l-22.9-19.6v59.4s1.7,9.3,11,9.3a11.75,11.75,0,0,0,11.9-9.3Z"/><path class="cls-11" d="M565.3,198.3,588.2,178v60.1s-1.7,9.3-11,9.3a11.75,11.75,0,0,1-11.9-9.3Z"/><path class="cls-19" d="M427.4,315.3s17.7,9.6,33.5,9.6c12.1,0,35.2-9.6,35.2-9.6s-23.2-3.2-35.9-3.2S427.4,315.3,427.4,315.3Z"/><path class="cls-20" d="M473.2,302c-7.7-.6-9.2,5.3-13,5.3s-2.7-4.6-10.4-4.6c-8.9,0-20,9.4-26.3,12.6,0,0,14,1.6,20.3,0s7.8-.7,10.1,0c3.7,1,3.8,2.4,6.3,2.4s2.9-.8,6.3-2.4c3.6-1.6,3.9-1.6,10.1,0s21.5,0,21.5,0C491.9,313.7,483.3,302.8,473.2,302Z"/><path class="cls-5" d="M394.1,227l-.2.4h.5c2,3,10.8,14.8,25.4,14.2,15.8-.7,16-10.1,30.6-14.2h2.9a9.36,9.36,0,0,1-1.6-.4,12.44,12.44,0,0,0,1.6-.4h-2.9c-14.5-4.1-14.8-13.5-30.6-14.2-14.6-.6-23.4,11.2-25.4,14.2h-.5C393.9,226.7,393.9,226.8,394.1,227Z"/><path class="cls-21" d="M419.8,217.5c5.85,0,10.6,4,10.6,8.9s-4.75,8.9-10.6,8.9-10.6-4-10.6-8.9S414,217.5,419.8,217.5Z"/><path class="cls-22" d="M452,287.6s-8,1.1-12.2-4.8.9-17.4,4.6-20.6,2.9-2.3,2.9-2.3l10.1,21.8,1.1,6.1Z"/><path class="cls-23" d="M460.9,283.1l.1-84.6H449.3s4.8,41.2,1.6,51.9-6.9,12.1-6.9,12.1S449.2,289.5,460.9,283.1Z"/><path class="cls-24" d="M469.8,287.6s8,1.1,12.2-4.8-.9-17.4-4.6-20.6-2.9-2.3-2.9-2.3l-10,21.8-1.1,6.1Z"/><path class="cls-23" d="M460.9,283.1l-.1-84.6h11.7s-4.8,41.2-1.6,51.9,6.9,12.1,6.9,12.1S472.6,289.5,460.9,283.1Z"/><path class="cls-25" d="M468.2,285.4a71.6,71.6,0,0,0-7.4,2.1s-4.8-1.6-7.4-2.1S446,287,446,287c4.3,3.7,8.5,0,9.6,3.2s2.7,4.8,5.3,4.8,4.3-1.6,5.3-4.8,5.3.5,9.6-3.2C475.7,287,470.9,284.9,468.2,285.4Z"/><path class="cls-26" d="M457.6,285.4l-7.2-5.3s-3.9-.7-3.9,2,3.9,1.3,3.9,1.3Z"/><path class="cls-26" d="M464.5,285.4l7.2-5.3s3.9-.7,3.9,2-3.9,1.3-3.9,1.3Z"/><path class="cls-27" d="M460.8,275.6a6.1,6.1,0,1,1-6.1,6.1A6.1,6.1,0,0,1,460.8,275.6Z"/><path class="cls-28" d="M461.6,341.9a34.66,34.66,0,0,0-33.9,27.4c5.1,4.3,9.2,6.9,11.6,6.9h43.1c2.5,0,7-3.2,12.7-8.3A34.55,34.55,0,0,0,461.6,341.9Z"/><polygon class="cls-29" points="400 398.5 460.9 446.1 460.9 489.5 364.4 439.1 400 398.5"/><polygon class="cls-30" points="520.4 398.5 459.5 446.1 459.5 489.5 556 439.1 520.4 398.5"/><path class="cls-31" d="M376.8,204.1l32.3-18.8s-9.6-2.6-9.6-18.8V110.4s-20.7,6-20.7,16.8S376.8,204.1,376.8,204.1Z"/><path class="cls-8" d="M388.1,105.6l12.6-1.9-.1-5.5-35,5.3a85.6,85.6,0,0,0-9.6,39.4v66l22.4,21.7V145.1A85.77,85.77,0,0,1,388.1,105.6Z"/><path class="cls-32" d="M545.1,204.1l-32.3-18.8s9.6-2.6,9.6-18.8V110.4s20.7,6,20.7,16.8S545.1,204.1,545.1,204.1Z"/><path class="cls-8" d="M533.8,105.6l-12.6-1.9.1-5.5,35,5.3a85.6,85.6,0,0,1,9.6,39.4v66l-22.4,21.7V145.1A85.77,85.77,0,0,0,533.8,105.6Z"/><path class="cls-33" d="M444.8,36.6s17.1-3.3,30.3,0c18.9,4.7,37.2,24.8,37.2,24.8s13.4-.4,21.6,3.7S551.7,77,554.3,89.7c1.9,9.3.8,13.6.8,13.6s2.5,6.8,11.9,5.9c-5.1,12.7-20.3,4.5-20.3,4.5a31.68,31.68,0,0,1-23.4,4.1c-13.8-2.8-11-12.1-37.2-7.9s-59.2-36.1-59.2-36.1Z"/><path class="cls-34" d="M446.1,113.7s-5.6,9.9-22,8.3c-8.7-.9-15.1-8.3-15.1-8.3s-2,4.2-13.8,8.3c-26.8,9.3-37-18.7-37-18.7s-8.7-24.1-1.6-35c10.9-16.8,27.5-16.5,27.5-16.5s4.1-8.3,15.1-12.4,13.8,2.8,22,0,6.9-20.7,6.9-20.7,22,5.5,22,23.4c0,13.8-12.6,25.4-2.9,32.3s37.4,3.5,42.9,35.2C473.7,135.8,446.1,113.7,446.1,113.7Z"/><path class="cls-27" d="M461.9,340.5c5.58,0,10.1,2.33,10.1,5.2s-4.52,5.2-10.1,5.2-10.1-2.33-10.1-5.2S456.32,340.5,461.9,340.5Z"/><path class="cls-5" d="M525.8,227l.2-.4h-.5c-2-3-10.8-14.8-25.4-14.2-15.8.7-16,10.1-30.6,14.2h-2.9a9.36,9.36,0,0,1,1.6.4,12.44,12.44,0,0,0-1.6.4h2.9c14.5,4.1,14.8,13.5,30.6,14.2,14.6.6,23.4-11.2,25.4-14.2h.5A1.09,1.09,0,0,1,525.8,227Z"/><ellipse class="cls-21" cx="500.1" cy="227.7" rx="10.6" ry="8.9"/><path class="cls-35" d="M513.3,185.6l-39.7,12.3s-.1,7.9,8.7,8.6c3.2.3,11.9-3.6,19.3-5.5,7.1-1.8,11.6-1.7,16.8,4.3,5.6,6.5,8.7,6.6,8.7,6.6V194.2Z"/><path class="cls-35" d="M406.8,185.6l39.7,12.3s.1,7.9-8.7,8.6c-3.2.3-11.9-3.6-19.3-5.5-7.1-1.8-11.6-1.7-16.8,4.3-5.6,6.5-8.7,6.6-8.7,6.6V194.2Z"/><path class="cls-36" d="M261.2,519.4c1.8-3.4,3.4-6,4.7-8.8,2.8-6,7.4-9.1,14-9.1h14.3v74.2a63.36,63.36,0,0,1-7.6-.1c-.7-.1-1.6-1.9-1.6-3-.2-11.4-.3-22.9-.3-34.3V512.4c-5.2-1.5-8.3-.2-10.5,4.2-3.7,7.7-7.2,15.5-10.8,23.3-.6,1.2-1.2,2.4-2.1,4.3-2.2-4.7-4.1-8.7-6-12.8-2.3-4.9-4.4-9.9-6.8-14.7-2.3-4.6-4.9-5.6-10.6-4.5v3.6c0,18.8-.1,37.5,0,56.3,0,3-.7,4.3-3.8,4a54.1,54.1,0,0,0-5.7,0c-.1-1.2-.3-2.2-.3-3.2v-68c0-2.5.8-3.4,3.3-3.3,4.5.2,9.1.1,13.7.3,5.3.2,8.8,3.2,11.2,7.7C257.6,512.6,259.2,515.7,261.2,519.4Z"/><path class="cls-36" d="M645.5,539.8c0,5.9.2,11.9,0,17.8-.3,9.8-7.3,17.4-17.1,18a125.07,125.07,0,0,1-21.2,0c-10.7-1-16.7-7.8-17.2-18.9s-.2-22.2-.1-33.3c.1-6.3,1.2-12.4,6.5-16.5,2.6-2,5.9-4,9-4.2,8.3-.6,16.8-1.1,24.9,0,9.9,1.3,15.3,8.8,15.6,19.1.2,6,0,12.1,0,18.1A.76.76,0,0,0,645.5,539.8Zm-9.8.1h.3c0-5.3.1-10.6,0-15.9-.2-8-4.9-12.5-12.9-12.5-3.8,0-7.6,0-11.4.2-7.8.2-11.9,4.3-12,12.1-.1,10.2,0,20.4,0,30.5,0,6.9,4.3,11.4,11.1,11.7,4.6.2,9.1.2,13.7.1,6.6-.2,11-4.5,11.2-11C635.8,550,635.7,545,635.7,539.9Z"/><path class="cls-36" d="M525.7,538.9c-.3,7-.2,14-1.1,20.9-1.3,9.5-8,15.3-17.5,15.8a166.82,166.82,0,0,1-20,0c-9.5-.7-16.3-6-16.9-15.5a314.31,314.31,0,0,1,.2-43.4c.6-8.7,7.9-14.2,16.7-14.6a157.34,157.34,0,0,1,20.6,0c11.1,1.1,17.3,8.3,17.7,19.6.2,5.7,0,11.4,0,17.2Zm-10.3.1V523.7c0-7.6-4.7-12.3-12.4-12.2-4.3,0-8.7.1-13,.3-5.9.2-10.3,3.6-10.5,9.4-.4,11.7-.4,23.5,0,35.2.2,5.4,4.1,9,9.5,9.4a135.32,135.32,0,0,0,15.6.1c6.6-.3,10.7-4.7,10.8-11.3C515.5,549.4,515.4,544.2,515.4,539Z"/><path class="cls-36" d="M261.2,552.9c.9-1.7,1.6-2.8,2.1-3.9,4.8-10.4,9.6-20.7,14.5-31.1a18.18,18.18,0,0,1,2.7-3.5,4.05,4.05,0,0,0,.9.5v60.8h-9.6V554.8c-.3-.1-.6-.2-1-.3-3.1,6.7-6.1,13.3-9.5,20.8-3.3-7.2-6.4-13.8-9.4-20.4-.3,0-.6.1-.9.1v20.7h-9.7V514.9a5.58,5.58,0,0,0,.8-.5,19.48,19.48,0,0,1,2.7,3.7c4.9,10.4,9.8,20.9,14.7,31.3A26.36,26.36,0,0,0,261.2,552.9Z"/><path class="cls-36" d="M533.9,511.5v-10h25.4a24.41,24.41,0,0,1,22.8,34,8.47,8.47,0,0,0,0,6.8c5.8,14.7-2.2,28.5-16.4,33.4a5.85,5.85,0,0,1-1.9.4H533.9v-9.8l4.8-.3c7.2-.1,14.4-.3,21.6-.1,6.4.1,10.1-3.7,12.4-8.7a13.16,13.16,0,0,0-2.3-14.8c-1-1.1-2.2-1.9-4.4-3.8,1.7-1.1,3-1.6,3.9-2.6a13.31,13.31,0,0,0,2.8-15.3c-2.4-5.6-6.5-9.2-13.2-9.1-7.4.1-14.8-.1-22.3-.1Z"/><path class="cls-36" d="M414.6,576.1c-2.7,0-5.1.1-7.5-.1-.7-.1-1.9-1.2-1.9-1.9-.1-15.4-.1-30.7-.1-46.4,1.3-.1,2.5-.2,3.6-.2h27.7a10.27,10.27,0,0,0,2.5-.1c.6-.2,1-.9,1.5-1.4-.5-.5-.9-1.2-1.4-1.4a11.26,11.26,0,0,0-3.2-.2c-8.9,0-17.8-.1-26.7-.1h-4v-9.4c1.5-.1,2.7-.2,3.9-.2h31.2c5.5,0,10.7,5.6,10.7,11.3s-5.3,11.2-10.8,11.3c-7.4.1-14.8.2-22.3,0-2.6,0-3.2.9-3.2,3.3.1,10.5,0,21,0,31.5Z"/><path class="cls-36" d="M300.4,524v-9.1c1-.1,1.8-.2,2.6-.2,10.9,0,21.8,0,32.7.1,5.4,0,9.7,5.1,10.2,10.9.5,5.5-5.9,11.8-10.3,11.7-7.3-.3-14.6,0-21.9-.2-3-.1-4.1.8-4,3.9.1,10.3,0,20.6,0,30.8v3.8h-9.2V527.4h15.9c5.6,0,11.2,0,16.8-.2.9,0,1.7-1,2.6-1.5a10.08,10.08,0,0,0-2.6-1.2c-9.7-.2-19.5-.3-29.2-.4A22.51,22.51,0,0,1,300.4,524Z"/><path class="cls-36" d="M358.6,576.1c-3.3,0-5.8.1-8.3-.1a2.45,2.45,0,0,1-1.7-1.1c-5.7-11.2-11.3-22.5-17.2-34.2a36.7,36.7,0,0,1,3.9-.4c6.6-.4,12.2-5,13.4-11.1,1.3-6.7-1.9-13.7-8-16.4a18,18,0,0,0-6.2-1.1c-10.1-.2-20.1-.2-30.2-.3h-4c0-2.8-.1-5.4.1-8a2.81,2.81,0,0,1,2.1-1.5c12.1-.1,24.2-.4,36.2.1,9.4.3,19.1,11.3,20,21.1,1,10.2-2.6,18-11.2,23.5-2,1.3-2.4,2.4-1.2,4.6,3.5,6.7,6.7,13.5,10,20.2C356.9,572.6,357.5,573.9,358.6,576.1Z"/><path class="cls-36" d="M405.1,511.5c0-3-.1-5.5.1-8a2.75,2.75,0,0,1,2-1.6c12.2-.1,24.4-.4,36.5.1,9.2.4,19,11.7,19.7,21.4.7,9-2,16.5-9.6,21.8-1.4,1-2.7,2.1-4.2,3.3,4.4,9,8.8,18,13.6,27.6-3.3,0-6,.1-8.7-.1-.5,0-1.1-.6-1.4-1.1-5.7-11.2-11.3-22.5-17.1-34.1,1.7-.3,2.9-.5,4.1-.6a14.17,14.17,0,0,0,13.4-14.8,14.52,14.52,0,0,0-14.1-13.9Z"/><path class="cls-36" d="M679.2,575.7a4.28,4.28,0,0,1-1,.3c-8.4.6-8.5.6-8.6-7.7-.1-13.1-.2-26.3-.3-39.4v-4.4H651.7v-9.6h27.5Z"/><path class="cls-36" d="M692.3,575.3c-.8.4-.9.6-1.1.6-8.2,1.3-8.5,1.1-8.5-7.1V514.6h6.5c6.1,0,12.3.2,18.4.1,2.3,0,3,.8,2.9,3-.1,2,0,4,0,6.6h-18C692.3,541.8,692.3,558.7,692.3,575.3Z"/><path class="cls-36" d="M533.9,537.4V515a24.18,24.18,0,0,1,2.5-.3c8,0,16.1-.1,24.1,0,5.6,0,10.6,5.4,10.6,11.3s-5.2,11.4-10.9,11.4Zm17.3-10c2.5,0,5.1.1,7.6-.1.7-.1,1.4-1,2.1-1.5-.7-.5-1.4-1.4-2.2-1.4-5.1-.1-10.2,0-15.3.2-.6,0-1.1.9-1.6,1.4.6.5,1.1,1.3,1.7,1.4C546.1,527.5,548.6,527.4,551.2,527.4Z"/><path class="cls-36" d="M533.9,562.8V540.7c1.1-.1,2-.2,2.9-.2,7.8,0,15.7-.1,23.5,0,6,0,10.8,5.2,10.8,11.4-.1,5.9-5,11.1-10.7,11.2H536.9C536,563,535.1,562.9,533.9,562.8Zm17.3-12.6h0c-2.5,0-5.1-.1-7.6,0-.6,0-1.2.8-1.8,1.2.6.5,1.2,1.5,1.8,1.5,5.1.2,10.1.2,15.2.2.7,0,1.4-.9,2.1-1.4-.7-.5-1.4-1.4-2.1-1.4C556.3,550.1,553.7,550.2,551.2,550.2Z"/><path class="cls-36" d="M345.1,576.1a65.36,65.36,0,0,1-7.7-.1,3.65,3.65,0,0,1-2.3-2.1c-3.2-6.1-6.2-12.3-9.3-18.4-.6-1.2-1.3-2.3-1.9-3.4-.3.1-.5.1-.8.2V569c0,7.2,0,7.2-7.3,7.1-.7,0-1.4-.1-2.4-.2V540.4c4.6,0,9.3,0,14,.1.5,0,1.2.8,1.5,1.4,5.5,11,10.9,22,16.3,33A10.53,10.53,0,0,0,345.1,576.1Z"/><path class="cls-36" d="M449.8,575.9a74.48,74.48,0,0,1-8.2-.1c-.7-.1-1.5-1.3-2-2.2-3.3-6.3-6.4-12.6-9.7-18.9a6.05,6.05,0,0,0-2.4-2.7v24.1c-2.9,0-5.4.1-7.9-.1a2.75,2.75,0,0,1-1.6-2c-.2-10.5-.2-21-.1-31.4,0-.7,1.3-1.9,2-2a102.75,102.75,0,0,1,11.1,0,3.36,3.36,0,0,1,2.5,1.4c5.5,10.9,10.8,21.8,16.1,32.7A5.47,5.47,0,0,1,449.8,575.9Z"/><path class="cls-36" d="M368.7,576.1c-6.2-.1-6,1.3-6-5.9,0-5.8-1.4-5.8,5.8-5.8,7.4,0,5.9-.1,5.9,5.9C374.5,577.2,374.9,576,368.7,576.1Z"/><path class="cls-36" d="M632.8,538.9v15.6c0,5-3,8.2-8,8.4-4.8.2-9.5.2-14.3,0a8.13,8.13,0,0,1-7.9-8.3q-.15-15.75,0-31.5a8.35,8.35,0,0,1,8.1-8.5c4.9-.1,9.7-.1,14.6.1a7.84,7.84,0,0,1,7.5,7.9Zm-9.6,0h-.3V527.5c0-2.1-1-3.1-3.1-3.1-1.1,0-2.1.1-3.2.2-4,.2-4.3.5-4.3,4.5-.1,5.9,0,11.8,0,17.8,0,6.5.2,6.6,6.8,6.6,2.8,0,4.1-1.1,4-4C623.2,545.9,623.2,542.4,623.2,538.9Z"/><path class="cls-36" d="M512.4,539.1V554c0,5.6-3.2,8.8-8.9,8.9-4.1.1-8.3.2-12.4,0-5.8-.2-8.9-3.4-8.9-9.3-.1-9.2-.1-18.4-.1-27.6,0-8.6,2.4-11.2,11-11.5q5.4-.15,10.8,0c5.4.2,8.6,3.4,8.7,8.9.1,5.2,0,10.4,0,15.6A.31.31,0,0,1,512.4,539.1Zm-20.2-.5h0c-.1,2.6-.1,5.3-.1,7.9,0,6.7,0,6.6,6.9,6.6,2.8,0,3.7-1.1,3.7-3.8-.1-6.9,0-13.8,0-20.6,0-3.7-.8-4.4-4.5-4.4a28.25,28.25,0,0,0-2.9.2c-2.2,0-3.2,1-3.1,3.4C492.3,531.4,492.2,535,492.2,538.6Z"/><path class="cls-36" d="M651.6,511.5V502c1.3-.1,2.4-.2,3.5-.2,17.2,0,34.3.1,51.5-.1,2.9,0,3.8.9,3.7,3.8-.1,6,0,6.1-6,6.1H655.7C654.5,511.5,653.3,511.5,651.6,511.5Z"/></svg>