<svg id="Capa_1" data-name="Capa 1" xmlns="http://www.w3.org/2000/svg" xmlns:xlink="http://www.w3.org/1999/xlink" viewBox="0 0 900 600"><defs><style>.cls-1{fill:#2da6de;}.cls-2{fill:#ef4136;}.cls-3{fill:#00758d;}.cls-4{fill:#ffd41e;}.cls-5{fill:#eeefef;}.cls-6{fill:#d5d8d8;}.cls-7{fill:url(#Degradado_sin_nombre_4);}.cls-8{fill:url(#Degradado_sin_nombre_4-2);}.cls-9{fill:url(#Degradado_sin_nombre_4-3);}.cls-10{fill:url(#Degradado_sin_nombre_4-4);}.cls-11{fill:url(#Degradado_sin_nombre_4-5);}.cls-12{fill:#c08053;}.cls-13{fill:url(#Degradado_sin_nombre_4-6);}.cls-14{fill:#fff;}.cls-15,.cls-19{fill:#312b2c;}.cls-16,.cls-17{fill:none;stroke:#312b2c;stroke-linecap:round;stroke-linejoin:round;}.cls-16{stroke-width:5.05px;}.cls-17{stroke-width:10.11px;}.cls-18{fill:url(#Degradado_sin_nombre_4-7);}.cls-19{opacity:0.3;}.cls-20{fill:url(#Degradado_sin_nombre_4-8);}</style><linearGradient id="Degradado_sin_nombre_4" x1="265.77" y1="160.42" x2="309.87" y2="160.42" gradientTransform="translate(72.68 -33.26) rotate(10.18)" gradientUnits="userSpaceOnUse"><stop offset="0" stop-color="#ffda00"/><stop offset="0.67" stop-color="#ffb42b"/><stop offset="0.78" stop-color="#ffae32"/></linearGradient><linearGradient id="Degradado_sin_nombre_4-2" x1="244.47" y1="181.72" x2="288.57" y2="181.72" xlink:href="#Degradado_sin_nombre_4"/><linearGradient id="Degradado_sin_nombre_4-3" x1="436.01" y1="323.09" x2="524.23" y2="411.31" gradientTransform="matrix(1, 0, 0, 1, 0, 0)" xlink:href="#Degradado_sin_nombre_4"/><linearGradient id="Degradado_sin_nombre_4-4" x1="387.56" y1="300.22" x2="572.23" y2="115.55" gradientTransform="matrix(1, 0, 0, 1, 0, 0)" xlink:href="#Degradado_sin_nombre_4"/><linearGradient id="Degradado_sin_nombre_4-5" x1="398.37" y1="344.98" x2="524.08" y2="344.98" gradientTransform="matrix(1, 0, 0, 1, 0, 0)" xlink:href="#Degradado_sin_nombre_4"/><linearGradient id="Degradado_sin_nombre_4-6" x1="473.95" y1="76.63" x2="345.94" y2="150.54" gradientTransform="matrix(1, 0, 0, 1, 0, 0)" xlink:href="#Degradado_sin_nombre_4"/><linearGradient id="Degradado_sin_nombre_4-7" x1="440.43" y1="205.94" x2="478.12" y2="205.94" gradientTransform="matrix(1, 0, 0, 1, 0, 0)" xlink:href="#Degradado_sin_nombre_4"/><linearGradient id="Degradado_sin_nombre_4-8" x1="238.77" y1="217.29" x2="280.01" y2="217.29" gradientTransform="matrix(0.83, -0.05, -0.33, 0.76, 134.44, 54.58)" xlink:href="#Degradado_sin_nombre_4"/></defs><title>nivel1-homero</title><path class="cls-1" d="M445.63,105.27S334.76-35,275.83,48.55c-41.25,58.49,73.32,85.94,51.8,127-36.42,69.42-113-35.34-161,49.12-40.78,71.76,84.35,96.74,52,154.14-35.11,62.31-90.42-7.39-126.22,51.59s46.22,94.7,46.22,94.7l310.29-27.57Z"/><path class="cls-2" d="M423,229.19S350.29,137.25,311.67,192c-27,38.34,48.06,56.33,33.95,83.21-23.87,45.51-74.09-23.16-105.55,32.2-26.73,47,55.29,63.41,34.08,101-23,40.85-59.27-4.84-82.73,33.82s30.29,62.07,30.29,62.07l203.38-18.07Z"/><path class="cls-2" d="M461.22,70.87S610.75,22,657.09,152.34c21.32,60-31.49,135.53,16.51,171.13,36.9,27.37,129,7.21,137.4,106.88,8.35,99-392.49,37.83-392.49,37.83Z"/><path class="cls-3" d="M450.84,172.07s113.16-37,148.23,61.66C615.2,279.12,573,325.32,609.29,364c42.36,45.11,100.21,15.52,100.21,80.13,0,75.23-291,28.64-291,28.64Z"/><path class="cls-1" d="M775.47,414.69h-387c12.36,26.91,22.11,54.88,32.63,82.4H775.47a41.2,41.2,0,0,0,0-82.4Z"/><path class="cls-4" d="M613.61,439c-3.09,2-6.18,3.94-9.31,5.86-2.16,1.44-5.77.72-7.94,2.16-46.21,32.62-78.5,80.39-86.07,132.83H680.82A180.83,180.83,0,0,0,613.61,439Z"/><path class="cls-5" d="M550,418a81.47,81.47,0,0,0-42.59,107.07l149.67-64.47A81.5,81.5,0,0,0,550,418Z"/><path class="cls-6" d="M459.2,398.68C359.13,398.68,278,479.81,278,579.88H640.4A181.21,181.21,0,0,0,459.2,398.68Z"/><rect class="cls-4" x="255.13" y="208.19" width="80.32" height="207.46" transform="translate(-58.02 67.66) rotate(-11.91)"/><path class="cls-4" d="M317,224.87a41.86,41.86,0,1,1-33.8-48.6A41.85,41.85,0,0,1,317,224.87Z"/><path class="cls-4" d="M353.49,124.6,250.66,183.4s-6.51,22.07,17,29.43,34.5-11.4,34.5-11.4l-1.08-15.54L343.58,160C363.9,146.1,353.49,124.6,353.49,124.6Z"/><path class="cls-7" d="M341.86,196h0a15.17,15.17,0,0,1-21.11-3.79l-11.13-16a15.17,15.17,0,0,1,3.79-21.11h0a15.16,15.16,0,0,1,21.1,3.79l11.13,16A15.17,15.17,0,0,1,341.86,196Z"/><path class="cls-8" d="M317.13,213.14h0a15.15,15.15,0,0,1-21.1-3.79l-11.13-16a15.16,15.16,0,0,1,3.79-21.1h0a15.16,15.16,0,0,1,21.1,3.79l11.13,16A15.15,15.15,0,0,1,317.13,213.14Z"/><path class="cls-4" d="M524.08,400.2c0,29.89-62.86,58.47-62.86,58.47s-62.85-29.23-62.85-58.47V298.85H524.08Z"/><path class="cls-9" d="M460.25,298.85V458.67s62.86-28.58,62.86-58.47V298.85Z"/><path class="cls-4" d="M459.27,372.91h0a94.86,94.86,0,0,1-94.85-94.85V137.72a94.86,94.86,0,0,1,94.85-94.86h0a94.86,94.86,0,0,1,94.86,94.86V278.06A94.86,94.86,0,0,1,459.27,372.91Z"/><path class="cls-10" d="M460.25,42.86h0V372.91h0a94.86,94.86,0,0,0,94.86-94.85V137.72A94.86,94.86,0,0,0,460.25,42.86Z"/><path class="cls-11" d="M398.37,298.85V369a94.43,94.43,0,0,0,60.9,22.14h0a94.53,94.53,0,0,0,64.81-25.59V298.85Z"/><path class="cls-4" d="M554.13,195.54v49.38a24.69,24.69,0,1,0,0-49.38Z"/><path class="cls-4" d="M364.42,244.92V195.54a24.69,24.69,0,0,0,0,49.38Z"/><path class="cls-12" d="M459.27,224.78h0a94.89,94.89,0,0,0-92.56,74.07,94.89,94.89,0,0,0,92.56,74.06h0a94.89,94.89,0,0,0,92.57-74.06A94.89,94.89,0,0,0,459.27,224.78Z"/><path class="cls-13" d="M389.11,133.17A94.89,94.89,0,0,1,454.52,43a94.86,94.86,0,0,0-90.1,94.74v44.83h24.69Z"/><path class="cls-14" d="M448.88,182.39a42.23,42.23,0,1,1-42.23-42.23A42.23,42.23,0,0,1,448.88,182.39Z"/><path class="cls-15" d="M415.42,182.39a8.77,8.77,0,1,1-8.77-8.77A8.77,8.77,0,0,1,415.42,182.39Z"/><path class="cls-4" d="M530.16,133.17A94.89,94.89,0,0,0,464.75,43a94.86,94.86,0,0,1,90.1,94.74v44.83H530.16Z"/><path class="cls-14" d="M554.13,182.39a42.23,42.23,0,1,1-42.23-42.23A42.23,42.23,0,0,1,554.13,182.39Z"/><path class="cls-15" d="M520.67,182.39a8.77,8.77,0,1,1-8.77-8.77A8.77,8.77,0,0,1,520.67,182.39Z"/><path class="cls-16" d="M483.48,60.73a24.37,24.37,0,1,0-48.73,0"/><path class="cls-16" d="M499.72,60.73a40.61,40.61,0,1,0-81.21,0"/><path class="cls-17" d="M450.83,181V161.11H353.7L353.37,181a48.73,48.73,0,1,0,97.46,0Z"/><path class="cls-17" d="M567.13,181V161.11H470L469.67,181a48.73,48.73,0,1,0,97.46,0Z"/><rect class="cls-15" x="450.83" y="175.8" width="18.84" height="13.71"/><path class="cls-18" d="M478.12,205.94a18.85,18.85,0,1,1-18.85-18.84A18.84,18.84,0,0,1,478.12,205.94Z"/><path class="cls-19" d="M459.27,224.78h-.64V372.91h.64a94.89,94.89,0,0,0,92.57-74.06A94.89,94.89,0,0,0,459.27,224.78Z"/><path class="cls-15" d="M472.27,317.36A13.32,13.32,0,1,1,459,304,13.32,13.32,0,0,1,472.27,317.36Z"/><polygon class="cls-5" points="398.25 374.86 443.47 409.59 421.2 455.43 374.6 420.7 398.25 374.86"/><polygon class="cls-5" points="522.68 374.86 477.47 409.59 499.73 455.43 546.34 420.7 522.68 374.86"/><path class="cls-14" d="M467.87,195.47c0,2.59-4.21,4.69-9.39,4.69s-9.38-2.1-9.38-4.69,4.2-4.69,9.38-4.69S467.87,192.88,467.87,195.47Z"/><path class="cls-4" d="M358.9,425.54a41.86,41.86,0,1,1-33.8-48.6A41.86,41.86,0,0,1,358.9,425.54Z"/><path class="cls-5" d="M357.11,455.05a71.1,71.1,0,0,0,0-100.56L256.55,455.05A71.1,71.1,0,0,0,357.11,455.05Z"/><path class="cls-20" d="M284.71,218.44h0a15.17,15.17,0,0,1-21.11-3.79h0a15.16,15.16,0,0,1,3.79-21.1h0a15.15,15.15,0,0,1,21.1,3.79h0A15.15,15.15,0,0,1,284.71,218.44Z"/><path class="cls-2" d="M775.47,579.88H133.57a41.21,41.21,0,0,1-41.2-41.2h0a41.21,41.21,0,0,1,41.2-41.2h641.9a41.21,41.21,0,0,1,41.2,41.2h0A41.21,41.21,0,0,1,775.47,579.88Z"/><path class="cls-2" d="M775.47,579.88H133.57a41.21,41.21,0,0,1-41.2-41.2h0a41.21,41.21,0,0,1,41.2-41.2h641.9a41.21,41.21,0,0,1,41.2,41.2h0A41.21,41.21,0,0,1,775.47,579.88Z"/></svg>